# xmcd
#
# Track frame offsets:
#	150
#	21106
#	47387
#	83809
#	111564
#	159313
#	191937
#	209015
#	231546
#
# Disc length: 4027 seconds
#
# Revision: 2
# Processed by: cddbd v1.5.2PL0 Copyright (c) Steve Scherf et al.
# Submitted via: audiograbber 1.83.01
#
DISCID=7c0fb909
DTITLE=Rock Candy Funk Party - We Want Groove
DYEAR=2013
DGENRE=Funk
TTITLE0=Octopus-e
TTITLE1=Spaztastic
TTITLE2=Ode To Gee
TTITLE3=We Want Groove
TTITLE4=The Best Ten Minutes Of Your Life
TTITLE5=Animal/Work
TTITLE6=Dope On A Rope
TTITLE7=Root Down (and get it)
TTITLE8=New York Song
EXTD=
EXTT0=
EXTT1=
EXTT2=
EXTT3=
EXTT4=
EXTT5=
EXTT6=
EXTT7=
EXTT8=
PLAYORDER=
